<svg preserveAspectRatio="none" width="100%" height="100%" overflow="visible" style="display: block;" viewBox="0 0 31 40" fill="none" xmlns="http://www.w3.org/2000/svg">
<path id="Text" d="M15.4859 40C12.3756 40 9.65881 39.543 7.33545 38.629C5.01209 37.6971 3.20399 36.3978 1.91115 34.7312C0.63705 33.0645 0 31.1111 0 28.871C0 27.3656 0.393472 25.9229 1.18042 24.543C1.9861 23.1631 3.01662 21.9892 4.27199 21.0215C5.52735 20.0538 6.83892 19.4444 8.20671 19.1935C6.35177 18.4409 4.81535 17.3477 3.59746 15.914C2.39831 14.4803 1.79873 12.7061 1.79873 10.5914C1.79873 8.33333 2.39831 6.41577 3.59746 4.83871C4.79662 3.26165 6.42672 2.06093 8.48776 1.23656C10.5675 0.412186 12.9003 0 15.4859 0C18.0904 0 20.4231 0.412186 22.4841 1.23656C24.5452 2.06093 26.1753 3.26165 27.3744 4.83871C28.5736 6.41577 29.1732 8.33333 29.1732 10.5914C29.1732 12.7061 28.5736 14.4803 27.3744 15.914C26.194 17.3477 24.667 18.4409 22.7933 19.1935C24.1611 19.4444 25.4633 20.0538 26.6999 21.0215C27.9553 21.9892 28.9858 23.1631 29.7915 24.543C30.5972 25.9229 31 27.3656 31 28.871C31 31.1111 30.3536 33.0645 29.0607 34.7312C27.7866 36.3978 25.9879 37.6971 23.6646 38.629C21.3412 39.543 18.615 40 15.4859 40ZM15.4859 35.9677C18.5026 35.9677 20.9102 35.3226 22.709 34.0323C24.5077 32.724 25.4071 30.9946 25.4071 28.8441C25.4071 27.4283 24.9949 26.1649 24.1704 25.0538C23.3648 23.9427 22.2218 23.0735 20.7416 22.4462C19.2614 21.8011 17.5095 21.4785 15.4859 21.4785C13.4811 21.4785 11.7386 21.8011 10.2584 22.4462C8.79692 23.0735 7.65397 23.9427 6.82956 25.0538C6.02387 26.1649 5.62103 27.4283 5.62103 28.8441C5.62103 30.9946 6.51103 32.724 8.29103 34.0323C10.0898 35.3226 12.4881 35.9677 15.4859 35.9677ZM15.4859 17.0968C17.9592 17.0968 19.964 16.5143 21.5005 15.3495C23.0556 14.1846 23.8332 12.5627 23.8332 10.4839C23.8332 8.3871 23.0556 6.73835 21.5005 5.53763C19.9453 4.319 17.9405 3.70968 15.4859 3.70968C13.0314 3.70968 11.0266 4.319 9.47144 5.53763C7.91629 6.75627 7.13871 8.40502 7.13871 10.4839C7.13871 12.5627 7.91629 14.1846 9.47144 15.3495C11.0266 16.5143 13.0314 17.0968 15.4859 17.0968Z" fill="var(--fill-0, #1877F2)"/>
</svg>
