<svg preserveAspectRatio="none" width="100%" height="100%" overflow="visible" style="display: block;" viewBox="0 0 28.3356 19.7475" fill="none" xmlns="http://www.w3.org/2000/svg">
<path id="Vector" d="M20.3128 0C17.8495 0 15.6434 1.1836 14.1689 3.0398C12.6957 1.1793 10.4911 0 8.02491 0C3.59561 0 0.000709266 3.8169 0.000709266 8.5068V17.8093C-0.00619073 18.0613 0.0373083 18.3121 0.128808 18.5469C0.220308 18.7818 0.357909 18.9958 0.533409 19.1765C0.708809 19.3572 0.918709 19.5008 1.15061 19.5989C1.38241 19.697 1.63151 19.7475 1.88321 19.7475C2.13481 19.7475 2.38401 19.697 2.61581 19.5989C2.84761 19.5008 3.05751 19.3572 3.23301 19.1765C3.40851 18.9958 3.54601 18.7818 3.63751 18.5469C3.72901 18.3121 3.77261 18.0613 3.76561 17.8093V8.5068C3.76561 5.8964 5.67601 3.7725 8.02491 3.7725C10.3739 3.7725 12.2828 5.8949 12.2842 8.5053V17.8078C12.2842 18.3079 12.4825 18.7874 12.8353 19.1411C13.1882 19.4948 13.6668 19.6937 14.166 19.6941C14.5411 19.6937 14.9077 19.5816 15.219 19.3721C15.269 19.3377 15.3176 19.302 15.3619 19.2633C15.576 19.0862 15.7484 18.8639 15.8667 18.6123C15.985 18.3607 16.0463 18.086 16.0463 17.8078V8.5053C16.0463 5.8949 17.9567 3.7725 20.3056 3.7725C22.6546 3.7725 24.5692 5.8964 24.5692 8.5068V17.8093C24.5692 18.3095 24.7676 18.7893 25.1208 19.1431C25.4739 19.4968 25.9529 19.6955 26.4524 19.6955C26.9518 19.6955 27.4308 19.4968 27.784 19.1431C28.1372 18.7893 28.3356 18.3095 28.3356 17.8093V8.5068C28.337 3.8169 24.7364 0 20.3128 0Z" fill="var(--fill-0, #4F868E)"/>
</svg>
