<svg preserveAspectRatio="none" width="100%" height="100%" overflow="visible" style="display: block;" viewBox="0 0 18.4832 19.6282" fill="none" xmlns="http://www.w3.org/2000/svg">
<path id="Vector" d="M8.893 0C3.502 0 0 4.3764 0 9.8578C0 10.5433 0.384395 11.2288 1.54029 11.2288H14.3339C14.1196 14.1856 12.1078 16.4139 8.55719 16.4139C6.33249 16.4139 5.0052 15.6439 3.5935 14.3144C3.252 13.9723 2.7805 13.6718 2.2675 13.6718C2.0464 13.6646 1.8262 13.703 1.6205 13.7844C1.4148 13.8659 1.22799 13.9888 1.07159 14.1454C0.915094 14.3021 0.792496 14.4893 0.711096 14.6953C0.629796 14.9013 0.5915 15.1219 0.5987 15.3434C0.5987 15.7727 0.812996 16.1577 1.1116 16.5012C2.7376 18.386 5.64669 19.6282 8.72859 19.6282C15.104 19.6282 18.4832 15.1716 18.4832 9.8148C18.4775 4.2004 14.4125 0 8.893 0ZM3.7149 7.9715C4.0578 5.3954 5.9825 3.2143 8.8915 3.2143C11.8449 3.2143 13.8552 5.3153 14.241 7.9715H3.7149Z" fill="var(--fill-0, #4F868E)"/>
</svg>
