<svg preserveAspectRatio="none" width="100%" height="100%" overflow="visible" style="display: block;" viewBox="0 0 18.4874 19.6282" fill="none" xmlns="http://www.w3.org/2000/svg">
<path id="Vector" d="M9.5845 0C4.0649 0 0 4.2004 0 9.8148C0 15.1716 3.3791 19.6282 9.7545 19.6282C12.835 19.6282 15.7455 18.386 17.3715 16.5012C17.6701 16.1577 17.8844 15.7713 17.8844 15.3434C17.8906 15.1229 17.8517 14.9035 17.7702 14.6986C17.6886 14.4937 17.5662 14.3076 17.4104 14.1517C17.2545 13.9959 17.0685 13.8736 16.8638 13.7923C16.6591 13.711 16.44 13.6724 16.2199 13.6789C15.7069 13.6789 15.2368 13.9795 14.8939 14.3215C13.4823 15.6511 12.1549 16.4225 9.9302 16.4225C6.3796 16.4225 4.3678 14.1927 4.1549 11.236H16.9471C18.1031 11.236 18.4874 10.5504 18.4874 9.8649C18.4831 4.3764 14.9754 0 9.5845 0ZM4.2364 7.9715C4.6207 5.3153 6.6311 3.2143 9.5845 3.2143C12.4935 3.2143 14.4181 5.3997 14.7611 7.9715H4.2364Z" fill="var(--fill-0, #4F868E)"/>
</svg>
